<mxfile host="www.draw.io" modified="2019-11-17T01:23:31.295Z" agent="Mozilla/5.0 (Macintosh; Intel Mac OS X 10_14_6) AppleWebKit/537.36 (KHTML, like Gecko) Chrome/78.0.3904.97 Safari/537.36" etag="mBlgDxtrf5-240qkFOQh" version="12.2.6" type="github" pages="1">
  <diagram id="E5zsGG7FUBDtWv8Oeh53" name="Page-1">
    <mxGraphModel dx="1412" dy="699" grid="1" gridSize="10" guides="1" tooltips="1" connect="1" arrows="1" fold="1" page="1" pageScale="1" pageWidth="827" pageHeight="1169" math="0" shadow="0">
      <root>
        <mxCell id="0"/>
        <mxCell id="1" parent="0"/>
        <mxCell id="9s3MiFvgVYaXWDZ7VL4Z-1" value="&lt;font style=&quot;font-size: 18px&quot; color=&quot;#cc0000&quot;&gt;最近最少使用算法(LRU)&lt;/font&gt;" style="text;html=1;resizable=0;points=[];autosize=1;align=left;verticalAlign=top;spacingTop=-4;" vertex="1" parent="1">
          <mxGeometry x="260" y="50" width="210" height="20" as="geometry"/>
        </mxCell>
        <mxCell id="9s3MiFvgVYaXWDZ7VL4Z-2" value="(1) 1" style="text;html=1;resizable=0;points=[];autosize=1;align=left;verticalAlign=top;spacingTop=-4;fontSize=14;" vertex="1" parent="1">
          <mxGeometry x="215" y="110" width="40" height="20" as="geometry"/>
        </mxCell>
        <mxCell id="9s3MiFvgVYaXWDZ7VL4Z-3" value="(2) 2、1" style="text;html=1;resizable=0;points=[];autosize=1;align=left;verticalAlign=top;spacingTop=-4;fontSize=14;" vertex="1" parent="1">
          <mxGeometry x="215" y="147" width="60" height="20" as="geometry"/>
        </mxCell>
        <mxCell id="9s3MiFvgVYaXWDZ7VL4Z-4" value="(4) 4、2、1" style="text;html=1;resizable=0;points=[];autosize=1;align=left;verticalAlign=top;spacingTop=-4;fontSize=14;" vertex="1" parent="1">
          <mxGeometry x="215" y="184" width="80" height="20" as="geometry"/>
        </mxCell>
        <mxCell id="9s3MiFvgVYaXWDZ7VL4Z-5" value="(7) 7、4、2、1" style="text;html=1;resizable=0;points=[];autosize=1;align=left;verticalAlign=top;spacingTop=-4;fontSize=14;" vertex="1" parent="1">
          <mxGeometry x="215" y="217" width="100" height="20" as="geometry"/>
        </mxCell>
        <mxCell id="9s3MiFvgVYaXWDZ7VL4Z-6" value="(5) 5、7、4、2&amp;nbsp; [1]" style="text;html=1;resizable=0;points=[];autosize=1;align=left;verticalAlign=top;spacingTop=-4;fontSize=14;" vertex="1" parent="1">
          <mxGeometry x="215" y="258" width="120" height="20" as="geometry"/>
        </mxCell>
        <mxCell id="9s3MiFvgVYaXWDZ7VL4Z-7" value="&lt;font style=&quot;font-size: 14px&quot; color=&quot;#ff6666&quot;&gt;假设缓存4个字块，() 表示使用的字块，[]表示淘汰的字块&lt;/font&gt;" style="text;html=1;resizable=0;points=[];autosize=1;align=left;verticalAlign=top;spacingTop=-4;" vertex="1" parent="1">
          <mxGeometry x="180" y="330" width="370" height="20" as="geometry"/>
        </mxCell>
        <mxCell id="9s3MiFvgVYaXWDZ7VL4Z-13" value="(4) 4、5、7、2" style="text;html=1;resizable=0;points=[];autosize=1;align=left;verticalAlign=top;spacingTop=-4;fontSize=14;" vertex="1" parent="1">
          <mxGeometry x="215" y="297" width="100" height="20" as="geometry"/>
        </mxCell>
        <mxCell id="9s3MiFvgVYaXWDZ7VL4Z-14" value="(6) 6、4、5、7&amp;nbsp; [2]" style="text;html=1;resizable=0;points=[];autosize=1;align=left;verticalAlign=top;spacingTop=-4;fontSize=14;" vertex="1" parent="1">
          <mxGeometry x="395" y="110" width="120" height="20" as="geometry"/>
        </mxCell>
        <mxCell id="9s3MiFvgVYaXWDZ7VL4Z-15" value="(1) 1、6、4、5&amp;nbsp; [7]" style="text;html=1;resizable=0;points=[];autosize=1;align=left;verticalAlign=top;spacingTop=-4;fontSize=14;" vertex="1" parent="1">
          <mxGeometry x="395" y="147" width="120" height="20" as="geometry"/>
        </mxCell>
        <mxCell id="9s3MiFvgVYaXWDZ7VL4Z-16" value="(6) 6、1、4、5" style="text;html=1;resizable=0;points=[];autosize=1;align=left;verticalAlign=top;spacingTop=-4;fontSize=14;" vertex="1" parent="1">
          <mxGeometry x="395" y="184" width="100" height="20" as="geometry"/>
        </mxCell>
        <mxCell id="9s3MiFvgVYaXWDZ7VL4Z-17" value="(7) 7、6、1、4&amp;nbsp; [5]" style="text;html=1;resizable=0;points=[];autosize=1;align=left;verticalAlign=top;spacingTop=-4;fontSize=14;" vertex="1" parent="1">
          <mxGeometry x="395" y="217" width="120" height="20" as="geometry"/>
        </mxCell>
        <mxCell id="9s3MiFvgVYaXWDZ7VL4Z-18" value="(1) 1、4、7、6" style="text;html=1;resizable=0;points=[];autosize=1;align=left;verticalAlign=top;spacingTop=-4;fontSize=14;" vertex="1" parent="1">
          <mxGeometry x="395" y="297" width="100" height="20" as="geometry"/>
        </mxCell>
        <mxCell id="9s3MiFvgVYaXWDZ7VL4Z-19" value="(4) 4、7、6、1" style="text;html=1;resizable=0;points=[];autosize=1;align=left;verticalAlign=top;spacingTop=-4;fontSize=14;" vertex="1" parent="1">
          <mxGeometry x="395" y="258" width="100" height="20" as="geometry"/>
        </mxCell>
      </root>
    </mxGraphModel>
  </diagram>
</mxfile>
